Land_normalized_Motion_pl03
version=1
nRows=18
nColumns=43
inDegrees=yes
endheader
time		pelvis_tilt		pelvis_list		pelvis_rotation		pelvis_tx		pelvis_ty		pelvis_tz		hip_flexion_r		hip_adduction_r		hip_rotation_r		knee_angle_r		ankle_angle_r		subtalar_angle_r		mtp_angle_r		hip_flexion_l		hip_adduction_l		hip_rotation_l		knee_angle_l		ankle_angle_l		subtalar_angle_l		mtp_angle_l		lumbar_extension		lumbar_bending		lumbar_rotation		neck_flexion		neck_lateral_bending		neck_rotation		arm_flex_r		arm_add_r		arm_rot_r		elbow_flex_r		pro_sup_r		wrist_flex_r		wrist_dev_r		hand_finger_flex_r		arm_flex_l		arm_add_l		arm_rot_l		elbow_flex_l		pro_sup_l		wrist_flex_l		wrist_dev_l		hand_finger_flex_l		
1.055000		-1.453046		23.459104		91.212949		0.027562		1.022754		0.615453		8.336648		-6.603524		-11.191683		-29.507399		-30.618236		-0.900587		14.664443		5.925770		-4.004563		-11.418694		-25.922300		-27.758465		-9.518557		23.776580		-51.378174		-3.336561		-5.439139		-36.593540		-0.150070		3.616837		-68.882899		-16.418721		-22.955437		26.698024		107.969167		-3.199064		16.534037		52.072653		-76.788270		-17.057296		-22.960369		53.074345		112.665317		-27.626617		-5.489281		90.000210		
1.057652		-1.463753		23.788580		91.252226		0.027712		1.012119		0.611996		8.564182		-6.647843		-10.878778		-31.055256		-30.595277		-0.980017		14.617472		6.271196		-4.107161		-11.146160		-27.487542		-27.655527		-9.680722		23.768888		-51.956305		-3.347759		-5.485608		-35.927044		-0.124796		3.567596		-68.006211		-16.493692		-22.732582		26.407937		108.735274		-3.627221		16.702818		51.986431		-75.843707		-17.129150		-22.935715		52.502080		112.929256		-27.651241		-5.493371		90.000210		
1.060303		-1.427076		23.588395		91.342668		0.027577		1.000504		0.608546		9.509516		-6.651308		-10.408616		-32.821792		-30.630373		-1.142204		14.335775		7.312829		-4.180670		-10.581580		-29.227549		-27.629105		-10.049997		23.605210		-51.950098		-3.244803		-5.518671		-35.557686		-0.166424		3.546564		-67.129134		-16.446757		-22.804699		26.172481		110.328610		-4.605827		16.668232		52.013401		-74.820297		-17.134669		-23.121171		51.926141		113.806722		-27.795468		-5.847057		89.999802		
1.062955		-1.450226		23.931874		91.447239		0.027566		0.989771		0.604933		9.732490		-6.725631		-10.154822		-34.354746		-30.876556		-1.127667		14.274545		7.662745		-4.274925		-10.410406		-30.834719		-27.827503		-10.135689		23.560224		-52.486863		-3.200917		-5.524350		-35.212527		-0.026411		3.509085		-66.368269		-16.453441		-22.724737		26.135798		110.690571		-4.666490		16.676852		52.154417		-73.894446		-17.323587		-23.085002		51.592399		114.088695		-27.784991		-5.871444		89.997450		
1.065606		-1.406972		23.698231		91.516941		0.027533		0.977788		0.601992		10.746384		-6.685858		-9.648683		-35.995189		-31.012396		-1.151370		14.121969		8.891485		-4.339885		-9.818003		-32.776262		-27.939060		-10.528992		23.413027		-52.595079		-3.106930		-5.589966		-34.003432		-0.031160		3.435021		-65.327982		-16.507670		-22.686358		25.955795		111.817990		-4.967433		16.491336		52.650927		-72.701969		-17.441797		-23.029524		50.935072		115.077035		-27.770407		-6.111433		90.000210		
1.068258		-1.397268		23.961896		91.535025		0.027611		0.966683		0.598681		11.137040		-6.679195		-9.240513		-37.546275		-30.930504		-0.921501		14.336334		9.411270		-4.400009		-9.388891		-34.516875		-27.928689		-10.506517		23.527339		-53.136514		-3.083614		-5.586945		-33.162376		-0.010038		3.415721		-64.427264		-16.606318		-22.476431		25.975942		112.103159		-4.972768		16.401473		52.880082		-71.669599		-17.660264		-22.878544		50.586784		115.413039		-27.732482		-6.129221		90.000210		
1.070909		-1.309439		23.756203		91.605193		0.027436		0.954577		0.595445		12.150166		-6.609527		-8.739661		-39.313777		-30.428455		-0.363714		15.359967		10.585549		-4.473789		-8.729793		-36.487175		-27.571657		-10.392093		24.133960		-53.183464		-2.926343		-5.575091		-32.384779		-0.037045		3.347457		-63.527735		-16.744028		-22.117163		25.978434		112.428167		-5.064334		15.945548		53.547041		-70.543011		-17.860372		-22.777619		50.173378		116.136368		-27.722919		-6.306583		90.000210		
1.073561		-1.259775		23.626914		91.694551		0.027383		0.942569		0.592270		13.068122		-6.544175		-8.228370		-41.105496		-29.538215		0.312981		17.318296		11.677026		-4.516107		-8.091598		-38.512133		-26.808439		-9.991398		25.448528		-53.334379		-2.823199		-5.586169		-31.515519		0.071905		3.270975		-62.560560		-16.892051		-21.622610		25.979713		112.315325		-5.182575		15.488631		54.358949		-69.432003		-18.100751		-22.689669		49.838054		116.699605		-27.700871		-6.446474		90.000210		
1.076212		-1.216075		23.823558		91.718404		0.027465		0.931176		0.589178		13.571735		-6.387126		-7.608904		-42.883350		-27.849080		0.741248		18.798586		12.348908		-4.523650		-7.466471		-40.547384		-25.443110		-9.826060		26.506902		-53.857819		-2.758846		-5.584021		-30.467985		0.097729		3.216483		-61.571500		-17.048504		-21.189467		26.150120		112.063483		-5.156683		15.265492		54.739080		-68.298524		-18.385328		-22.447463		49.543967		116.965418		-27.691399		-6.469452		90.000210		
1.078864		-1.127188		23.825227		91.773644		0.027374		0.919308		0.585979		14.313705		-6.206002		-6.974127		-44.916156		-24.983058		1.783051		20.289123		13.284861		-4.558179		-6.810861		-42.827160		-23.018711		-9.125823		27.733069		-54.143813		-2.618930		-5.549340		-29.559910		0.128002		3.098311		-60.652332		-17.239146		-20.669501		26.414098		111.562904		-4.950891		14.910670		55.008800		-67.149383		-18.711707		-22.137009		49.276350		117.227238		-27.774847		-6.535134		90.000210		
1.081515		-0.992335		23.623231		91.841428		0.027126		0.906922		0.582709		15.319990		-6.005538		-6.370475		-47.228030		-21.166325		3.214941		22.369078		14.484843		-4.616860		-6.149903		-45.340352		-19.621853		-7.988663		29.596280		-54.184538		-2.410542		-5.470272		-28.772533		0.129912		2.946419		-59.778646		-17.500207		-19.843672		26.685494		110.626723		-4.763431		14.392923		55.339655		-65.992860		-19.074194		-21.786588		49.048977		117.517307		-27.955554		-6.658320		90.000210		
1.084167		-0.890693		23.599207		91.866621		0.027060		0.894934		0.579619		16.121562		-5.794258		-5.835166		-49.610815		-17.044051		4.096404		24.023888		15.424632		-4.621024		-5.561053		-47.845598		-15.840521		-7.241238		31.258182		-54.464861		-2.277429		-5.402044		-27.756699		0.134057		2.834326		-58.771668		-17.786754		-18.933382		26.920657		109.544853		-4.662083		13.999674		55.565663		-64.799129		-19.452813		-21.411149		48.841265		117.716058		-28.146021		-6.726056		90.000210		
1.086818		-0.804874		23.629452		91.877977		0.026957		0.883105		0.576574		16.854752		-5.610151		-5.403001		-52.076167		-12.594857		4.827806		25.113827		16.276183		-4.599938		-5.073736		-50.402473		-11.701920		-6.676083		32.519437		-54.816442		-2.167579		-5.323891		-26.704610		0.129373		2.711824		-57.715697		-18.101888		-17.941091		27.171903		108.307127		-4.579209		13.638690		55.715018		-63.565077		-19.851098		-20.979661		48.666315		117.873022		-28.372591		-6.768521		90.000210		
1.089470		-0.715514		23.624841		91.860323		0.026958		0.871311		0.573579		17.638590		-5.398566		-5.047082		-54.589700		-8.040842		5.075247		24.638031		17.165784		-4.568571		-4.648540		-53.024949		-7.424334		-6.331906		32.984094		-55.145696		-2.106023		-5.237926		-25.673207		0.207822		2.662865		-56.588032		-18.706546		-15.437630		27.319246		105.202906		-5.157839		13.324216		55.704961		-62.331227		-20.273177		-20.455458		48.517529		117.794391		-28.994143		-6.787191		90.000210		
1.092121		-0.717605		23.769833		91.863849		0.026801		0.859860		0.570658		18.254313		-5.361452		-4.845472		-57.089247		-3.592688		5.560998		23.676324		17.875813		-4.455145		-4.414399		-55.637284		-3.245244		-6.253591		32.316782		-55.658737		-2.075228		-5.249094		-24.532847		0.117707		2.522106		-55.355388		-19.145060		-14.130640		27.534378		103.473843		-5.340038		13.078093		55.818858		-61.059670		-20.686840		-19.928658		48.388721		117.889272		-29.267306		-6.784144		90.000210		
1.094773		-0.732752		23.879961		91.874975		0.026729		0.848477		0.567778		18.931814		-5.304727		-4.715279		-59.566066		0.721971		5.599082		20.785738		18.631222		-4.310418		-4.245230		-58.198732		0.775106		-6.436943		29.238405		-56.138272		-2.082427		-5.185694		-23.473911		0.325051		2.402522		-54.154750		-19.578358		-12.434515		27.833578		101.369113		-5.639120		12.738934		55.807525		-59.679923		-21.166098		-19.418059		48.242789		117.854470		-29.816945		-6.769252		90.000210		
1.097424		-0.758016		24.256722		91.826027		0.026609		0.837639		0.565001		19.348588		-5.321171		-4.734745		-61.927153		4.200230		5.379952		20.551100		19.072657		-4.196246		-4.268628		-60.609505		3.957406		-7.303150		28.707885		-56.909753		-2.092886		-5.057077		-22.343174		0.333159		2.218371		-53.019777		-19.798822		-12.080368		28.412864		100.832077		-5.435077		12.591649		55.966049		-58.256216		-21.668295		-18.968736		48.183305		118.054446		-29.855097		-6.807418		90.000210		
1.100076		-0.815946		24.681158		91.797736		0.026778		0.827224		0.562569		19.769045		-5.337407		-4.820974		-64.148536		6.731423		4.629542		20.696911		19.481739		-4.058202		-4.277477		-62.856478		6.551725		-8.322717		28.689544		-57.842600		-2.177952		-5.044563		-20.849240		0.510882		2.144018		-51.529035		-19.963816		-11.858937		28.745578		100.711225		-5.354237		12.566690		56.014018		-56.734200		-22.078828		-18.729331		48.056411		118.165677		-29.866632		-6.778165		90.000210		
